<svg width="31" height="31" viewBox="0 0 31 31" fill="none" xmlns="http://www.w3.org/2000/svg">
<path d="M11.6002 21.9988C11.0439 22.8157 10.4162 23.6333 9.78145 24.3905C5.16895 24.2593 3.41895 21.2655 3.41895 21.2655C3.48451 17.0237 4.51243 12.8522 6.4252 9.06553C8.10656 7.75018 10.1553 6.9901 12.2877 6.89053L12.9127 8.33428C13.8054 8.21035 14.7052 8.14562 15.6064 8.14053C16.5117 8.14351 17.4157 8.20614 18.3127 8.32803L18.9377 6.88428C21.0722 6.98924 23.1211 7.75595 24.8002 9.07803C26.7068 12.8619 27.7304 17.0289 27.7939 21.2655C27.7939 21.2655 26.0439 24.2593 21.4314 24.3905C20.7961 23.6272 20.1995 22.8325 19.6439 22.0093M23.6814 20.1968C21.2814 21.4127 18.9593 22.628 15.6064 22.628C12.2536 22.628 9.93145 21.4127 7.53145 20.1968" fill="white" fill-opacity="0.5"/>
<path d="M11.6002 21.9988C11.0439 22.8157 10.4162 23.6333 9.78145 24.3905C5.16895 24.2593 3.41895 21.2655 3.41895 21.2655C3.48451 17.0237 4.51243 12.8522 6.4252 9.06553C8.10656 7.75018 10.1553 6.9901 12.2877 6.89053L12.9127 8.33428C13.8054 8.21035 14.7052 8.14562 15.6064 8.14053C16.5117 8.14351 17.4157 8.20614 18.3127 8.32803L18.9377 6.88428C21.0722 6.98924 23.1211 7.75595 24.8002 9.07803C26.7068 12.8619 27.7304 17.0289 27.7939 21.2655C27.7939 21.2655 26.0439 24.2593 21.4314 24.3905C20.7961 23.6272 20.1995 22.8325 19.6439 22.0093M23.6814 20.1968C21.2814 21.4127 18.9593 22.628 15.6064 22.628C12.2536 22.628 9.93145 21.4127 7.53145 20.1968" stroke="white" stroke-width="0.625" stroke-linecap="round" stroke-linejoin="round"/>
<path d="M11.7607 19.1279C12.9171 19.1279 13.8545 18.1905 13.8545 17.0342C13.8545 15.8778 12.9171 14.9404 11.7607 14.9404C10.6044 14.9404 9.66699 15.8778 9.66699 17.0342C9.66699 18.1905 10.6044 19.1279 11.7607 19.1279Z" fill="white" fill-opacity="0.25" stroke="white" stroke-width="0.625" stroke-linecap="round" stroke-linejoin="round"/>
<path d="M19.4521 19.1279C20.6085 19.1279 21.5459 18.1905 21.5459 17.0342C21.5459 15.8778 20.6085 14.9404 19.4521 14.9404C18.2958 14.9404 17.3584 15.8778 17.3584 17.0342C17.3584 18.1905 18.2958 19.1279 19.4521 19.1279Z" fill="white" fill-opacity="0.25" stroke="white" stroke-width="0.625" stroke-linecap="round" stroke-linejoin="round"/>
</svg>
