<svg width="32" height="32" viewBox="0 0 32 32" fill="none" xmlns="http://www.w3.org/2000/svg">
<g clip-path="url(#clip0_2436_6)">
<path d="M4.89296 5.63708C6.96437 4.66791 9.17923 3.96356 11.4948 3.5625C11.7792 4.07665 12.1114 4.76819 12.3405 5.3183C14.802 4.94812 17.2409 4.94812 19.6571 5.3183C19.8861 4.76819 20.2259 4.07665 20.5129 3.5625C22.8309 3.96356 25.0483 4.6705 27.1197 5.64221C31.2978 11.9558 32.4304 18.1126 31.8641 24.182C29.093 26.2514 26.4075 27.5085 23.7672 28.3311C23.1153 27.4339 22.534 26.4802 22.0331 25.475C22.987 25.1126 23.9006 24.6653 24.7639 24.146C24.5349 23.9763 24.3109 23.7989 24.0944 23.6164C18.8291 26.0791 13.1081 26.0791 7.90569 23.6164C7.68671 23.7989 7.46273 23.9763 7.23621 24.146C8.10203 24.6678 9.01816 25.1151 9.97206 25.4776C9.4712 26.4802 8.89231 27.4365 8.23792 28.3336C5.59516 27.511 2.90712 26.254 0.136007 24.182C-0.528467 17.146 1.27111 11.0458 4.89296 5.63708ZM21.3158 20.4494C22.8964 20.4494 24.1926 18.9738 24.1926 17.1769C24.1926 15.38 22.9241 13.9018 21.3158 13.9018C19.7074 13.9018 18.4113 15.3774 18.4389 17.1769C18.4364 18.9738 19.7074 20.4494 21.3158 20.4494ZM10.6843 20.4494C12.265 20.4494 13.5612 18.9738 13.5612 17.1769C13.5612 15.38 12.2927 13.9018 10.6843 13.9018C9.07606 13.9018 7.77984 15.3774 7.80751 17.1769C7.80751 18.9738 9.07606 20.4494 10.6843 20.4494Z" fill="white"/>
</g>
<defs>
<clipPath id="clip0_2436_6">
<rect width="32" height="32" fill="white" transform="matrix(-1 0 0 1 32 0)"/>
</clipPath>
</defs>
</svg>
