<svg width="37" height="36" viewBox="0 0 37 36" fill="none" xmlns="http://www.w3.org/2000/svg">
<g clip-path="url(#clip0_3024_36)">
<mask id="mask0_3024_36" style="mask-type:luminance" maskUnits="userSpaceOnUse" x="0" y="0" width="37" height="36">
<path d="M0.5 0H36.5V36H0.5V0Z" fill="white"/>
</mask>
<g mask="url(#mask0_3024_36)">
<path d="M6.00458 6.34172C8.33492 5.2514 10.8266 4.459 13.4316 4.00781C13.7516 4.58623 14.1253 5.36421 14.3831 5.98309C17.1522 5.56663 19.896 5.56663 22.6142 5.98309C22.8719 5.36421 23.2541 4.58623 23.577 4.00781C26.1848 4.459 28.6793 5.25431 31.0097 6.34749C35.71 13.4503 36.9842 20.3767 36.3471 27.2047C33.2296 29.5328 30.2084 30.9471 27.2381 31.8725C26.5047 30.8631 25.8508 29.7902 25.2872 28.6594C26.3604 28.2517 27.3882 27.7485 28.3594 27.1642C28.1018 26.9733 27.8498 26.7738 27.6062 26.5684C21.6827 29.339 15.2466 29.339 9.3939 26.5684C9.14755 26.7738 8.89557 26.9733 8.64074 27.1642C9.61478 27.7513 10.6454 28.2545 11.7186 28.6623C11.1551 29.7902 10.5038 30.8661 9.76766 31.8753C6.79455 30.9499 3.77051 29.5357 0.653007 27.2047C-0.0945261 19.2892 1.93 12.4265 6.00458 6.34172ZM24.4803 23.0056C26.2584 23.0056 27.7167 21.3455 27.7167 19.324C27.7167 17.3025 26.2896 15.6395 24.4803 15.6395C22.6708 15.6395 21.2127 17.2996 21.2438 19.324C21.2409 21.3455 22.6708 23.0056 24.4803 23.0056ZM12.5198 23.0056C14.2981 23.0056 15.7563 21.3455 15.7563 19.324C15.7563 17.3025 14.3293 15.6395 12.5198 15.6395C10.7106 15.6395 9.25232 17.2996 9.28345 19.324C9.28345 21.3455 10.7106 23.0056 12.5198 23.0056Z" fill="white"/>
</g>
</g>
<defs>
<clipPath id="clip0_3024_36">
<rect width="36" height="36" fill="white" transform="translate(0.5)"/>
</clipPath>
</defs>
</svg>
