<svg width="32" height="32" viewBox="0 0 32 32" fill="none" xmlns="http://www.w3.org/2000/svg">
<path d="M27.0741 1.00262C26.9005 0.583728 26.5654 0.263232 26.1534 0.122032L26.1504 0.121024L26.1475 0.120016L26.1414 0.117984L26.1288 0.113824L26.1018 0.105328C26.0829 0.0995677 26.0624 0.0936956 26.0403 0.0877916C25.9962 0.0759836 25.9456 0.0641118 25.8888 0.0531038C25.7749 0.0310558 25.6365 0.0125917 25.4733 0.0044637C25.1456 -0.0118563 24.7259 0.0137276 24.2107 0.128864C23.3515 0.320848 22.2362 0.759424 20.8358 1.6581C20.7443 1.71683 20.6515 1.77754 20.5576 1.84026C20.4635 1.81698 20.3694 1.79448 20.2752 1.7728C17.7218 1.18533 15.0787 1.18533 12.5252 1.7728C12.4309 1.7945 12.3368 1.81698 12.2428 1.84027C12.1488 1.77754 12.056 1.71683 11.9644 1.6581C10.5626 0.75896 9.44466 0.320464 8.58329 0.128624C8.06687 0.0136317 7.64626 -0.0118083 7.3184 0.00444768C7.15498 0.0125437 7.01658 0.0308957 6.90285 0.0527837C6.84609 0.0637117 6.79572 0.0754718 6.75173 0.0871518C6.72975 0.0929918 6.70938 0.0988157 6.69061 0.104496L6.6637 0.112896L6.65117 0.116976L6.64513 0.118992L6.64217 0.119984L6.63924 0.120976C6.22367 0.262352 5.88604 0.585968 5.71279 1.00898C5.06746 2.58464 4.89617 4.32214 5.20697 5.9889C5.22207 6.06987 5.23831 6.15069 5.25569 6.23133C5.18906 6.32597 5.12433 6.42189 5.06149 6.51902C4.09234 8.01742 3.57685 9.80466 3.60101 11.6399C3.60333 15.5704 4.75144 18.2622 6.69312 19.9944C7.79223 20.9749 9.06789 21.575 10.35 21.9533C10.4967 21.9966 10.6435 22.037 10.7901 22.0747C10.7687 22.1491 10.7487 22.2242 10.7303 22.2997C10.6526 22.6171 10.6012 22.943 10.5773 23.2738C10.5752 23.3037 10.5738 23.3336 10.5733 23.3635L10.519 26.2736L10.5187 26.3051C10.5187 26.3142 10.5187 26.3234 10.5187 26.3323C10.4202 26.3568 10.3201 26.3749 10.2189 26.3866C9.90721 26.4226 9.59148 26.3963 9.28977 26.3094C8.98804 26.2226 8.70604 26.0766 8.46004 25.8798C8.21404 25.683 8.00885 25.439 7.8565 25.1618L7.8408 25.1339C7.42138 24.4056 6.84204 23.7822 6.14628 23.3112C5.4505 22.84 4.65665 22.5338 3.82476 22.4158C2.94985 22.2918 2.14005 22.9005 2.01604 23.7755C1.89202 24.6504 2.50074 25.4602 3.37565 25.5842C3.72506 25.6338 4.05901 25.7624 4.3522 25.961C4.64194 26.1571 4.88444 26.4165 5.06145 26.72C5.41537 27.3587 5.89065 27.9222 6.46082 28.3784C7.03605 28.8387 7.69652 29.1806 8.40436 29.3845C9.09357 29.5829 9.81428 29.6466 10.5272 29.572C10.5286 29.9558 10.5297 30.2504 10.5297 30.4C10.5297 31.2837 11.2083 32 12.0456 32H20.8093C21.6464 32 22.3251 31.2837 22.3251 30.4V24.3352C22.3664 23.6483 22.296 22.9598 22.1181 22.2997C22.0936 22.2088 22.067 22.1184 22.0386 22.0286C22.1341 22.0048 22.2296 21.9797 22.3251 21.9533C23.6443 21.5899 24.9621 20.9958 26.0941 19.9973C28.0466 18.2747 29.1971 15.5806 29.1994 11.6399C29.2235 9.80466 28.708 8.01742 27.7389 6.51902C27.676 6.42173 27.6112 6.32566 27.5443 6.23086C27.5616 6.15038 27.5778 6.06973 27.5928 5.9889C27.9029 4.31894 27.7272 2.57827 27.0741 1.00262Z" fill="white"/>
</svg>
