<svg width="37" height="36" viewBox="0 0 37 36" fill="none" xmlns="http://www.w3.org/2000/svg">
<g clip-path="url(#clip0_3024_30)">
<mask id="mask0_3024_30" style="mask-type:luminance" maskUnits="userSpaceOnUse" x="0" y="0" width="37" height="36">
<path d="M36.5 0H0.5V36H36.5V0Z" fill="white"/>
</mask>
<g mask="url(#mask0_3024_30)">
<path d="M18.5 0.445557C8.555 0.445557 0.5 8.50506 0.5 18.4456C0.5 26.4001 5.657 33.1456 12.8075 35.5231C13.7075 35.6926 14.0375 35.1361 14.0375 34.6576C14.0375 34.2301 14.0225 33.0976 14.015 31.5976C9.008 32.6836 7.952 29.1826 7.952 29.1826C7.133 27.1051 5.9495 26.5501 5.9495 26.5501C4.319 25.4341 6.0755 25.4566 6.0755 25.4566C7.883 25.5826 8.8325 27.3106 8.8325 27.3106C10.4375 30.0631 13.046 29.2681 14.075 28.8076C14.237 27.6436 14.7005 26.8501 15.215 26.4001C11.2175 25.9501 7.016 24.4021 7.016 17.5051C7.016 15.5401 7.7135 13.9351 8.8685 12.6751C8.666 12.2206 8.0585 10.3906 9.026 7.91106C9.026 7.91106 10.5335 7.42806 13.976 9.75606C15.416 9.35556 16.946 9.15756 18.476 9.14856C20.006 9.15756 21.536 9.35556 22.976 9.75606C26.396 7.42806 27.9035 7.91106 27.9035 7.91106C28.871 10.3906 28.2635 12.2206 28.0835 12.6751C29.231 13.9351 29.9285 15.5401 29.9285 17.5051C29.9285 24.4201 25.721 25.9426 21.716 26.3851C22.346 26.9251 22.931 28.0291 22.931 29.7151C22.931 32.1241 22.9085 34.0591 22.9085 34.6441C22.9085 35.1166 23.2235 35.6791 24.146 35.4991C31.3475 33.1381 36.5 26.3881 36.5 18.4456C36.5 8.50506 28.4405 0.445557 18.5 0.445557Z" fill="white"/>
</g>
</g>
<defs>
<clipPath id="clip0_3024_30">
<rect width="36" height="36" fill="white" transform="translate(0.5)"/>
</clipPath>
</defs>
</svg>
