<svg width="31" height="30" viewBox="0 0 31 30" fill="none" xmlns="http://www.w3.org/2000/svg">
<g clip-path="url(#clip0_3024_30)">
<mask id="mask0_3024_30" style="mask-type:luminance" maskUnits="userSpaceOnUse" x="0" y="0" width="31" height="30">
<path d="M30.25 0H0.25V30H30.25V0Z" fill="white"/>
</mask>
<g mask="url(#mask0_3024_30)">
<path d="M7.22183 25.9048C7.99716 26.5491 9.25048 27.0453 11.2021 26.71C11.2055 27.248 11.2097 27.7149 11.213 28.0865C11.2163 28.4505 11.2188 28.7231 11.2188 28.8813C11.2188 29.0159 11.1717 29.1386 11.0895 29.2135C11.0183 29.2784 10.8746 29.3495 10.5839 29.2991C4.76 27.3529 0.5625 21.8538 0.5625 15.3713C0.5625 7.26013 7.13514 0.683838 15.25 0.683838C23.3612 0.683838 29.9375 7.26018 29.9375 15.3713C29.9375 21.8443 25.7432 27.3471 19.8769 29.2793C19.5738 29.3345 19.4301 29.2618 19.3618 29.1995C19.2821 29.1267 19.2362 29.0054 19.2362 28.8701C19.2362 28.7103 19.2383 28.4287 19.241 28.0499C19.2424 27.8542 19.244 27.6326 19.2456 27.3884C19.2503 26.673 19.255 25.7673 19.255 24.7626C19.255 23.6496 18.963 22.798 18.5578 22.2227C20.0621 22.0045 21.5975 21.5604 22.8041 20.5498C24.1854 19.3929 25.0862 17.5371 25.0862 14.5876C25.0862 12.9421 24.5247 11.5778 23.5933 10.4945C23.7945 9.89085 24.1284 8.4037 23.3774 6.479L23.3233 6.34039L23.1816 6.29499L23.0862 6.59259C23.1816 6.29499 23.1813 6.2949 23.181 6.2948L23.1803 6.29459L23.179 6.29416L23.1759 6.29321L23.1682 6.29097C23.1661 6.29036 23.1638 6.28972 23.1613 6.28904C23.1571 6.2879 23.1524 6.28667 23.1472 6.28538C23.1307 6.28124 23.1091 6.27641 23.0823 6.27157C23.0287 6.26188 22.9547 6.25218 22.8597 6.24784C22.6695 6.23914 22.3969 6.25198 22.0372 6.32811C21.3382 6.47605 20.3132 6.86234 18.9239 7.79097C17.7362 7.47471 16.4828 7.3187 15.2318 7.31132L15.2282 7.31135C13.977 7.31871 12.7234 7.47476 11.5355 7.79111C10.1371 6.86221 9.10738 6.47596 8.40621 6.32807C8.04546 6.25198 7.77231 6.23915 7.58186 6.24784C7.48674 6.25218 7.41267 6.26187 7.35903 6.27156C7.33224 6.2764 7.3106 6.28123 7.29404 6.28537C7.28577 6.28744 7.27877 6.28933 7.27304 6.29096L7.2654 6.29321L7.26229 6.29416L7.26091 6.29459L7.26026 6.2948C7.25995 6.2949 7.25965 6.29499 7.355 6.59259L7.25965 6.29499L7.11796 6.34039L7.06388 6.479C6.31542 8.39713 6.64348 9.88347 6.86253 10.4985C5.92749 11.5813 5.3675 12.9444 5.3675 14.5876C5.3675 17.5297 6.26715 19.3866 7.64573 20.5476C8.85132 21.5628 10.3856 22.0128 11.8889 22.2345C11.6125 22.6286 11.3927 23.1465 11.2807 23.7866C10.8634 23.9549 10.2406 24.1339 9.58596 24.0754C8.86703 24.0111 8.08136 23.6592 7.4651 22.6038L7.46343 22.6008L7.45447 22.5853C7.44692 22.5723 7.43619 22.5543 7.42229 22.5319C7.39451 22.4872 7.35398 22.4248 7.30077 22.3504C7.19466 22.202 7.03656 22.0035 6.82701 21.801C6.41002 21.398 5.77006 20.9615 4.91798 20.9021L4.90913 20.9015L4.90025 20.9014L4.89625 21.2138C4.90025 20.9014 4.90015 20.9014 4.90005 20.9014L4.8998 20.9014L4.89922 20.9014L4.89764 20.9013L4.89291 20.9013L4.87744 20.9014C4.86462 20.9015 4.84681 20.9018 4.82511 20.9025C4.782 20.904 4.72211 20.9074 4.65456 20.9148C4.53187 20.9283 4.3367 20.9598 4.17969 21.0491C4.09786 21.0956 3.99743 21.1742 3.94115 21.3026C3.88059 21.4408 3.89346 21.5847 3.94604 21.7107C4.03818 21.9315 4.27242 22.1487 4.61474 22.383L4.63564 22.3973L4.65619 22.4069L4.65665 22.4071L4.65668 22.4071L4.65929 22.4085C4.66313 22.4104 4.67045 22.4143 4.68096 22.4203C4.70198 22.4322 4.73574 22.4524 4.77981 22.4825C4.86789 22.5426 4.99732 22.6423 5.14866 22.7937C5.44938 23.0945 5.84081 23.604 6.16547 24.4238L6.16557 24.4241C6.16682 24.428 6.1683 24.4324 6.17004 24.4375C6.17183 24.4428 6.17389 24.4488 6.17622 24.4554C6.18538 24.4814 6.19881 24.5174 6.21712 24.5617C6.25371 24.6503 6.31001 24.7727 6.39114 24.9152C6.55315 25.1997 6.81618 25.5677 7.22183 25.9048Z" fill="white" fill-opacity="0.5" stroke="white" stroke-width="0.625"/>
</g>
</g>
<defs>
<clipPath id="clip0_3024_30">
<rect width="30" height="30" fill="white" transform="translate(0.25)"/>
</clipPath>
</defs>
</svg>
